<svg xmlns="http://www.w3.org/2000/svg" width="512" height="512" viewBox="0 0 512 512">
    <defs>
        <linearGradient id="prefix__a" x1="50%" x2="50%" y1="0%" y2="98.878%">
            <stop offset="0%" stop-color="#FFF"/>
            <stop offset="100%" stop-color="#E5E5E5"/>
        </linearGradient>
    </defs>
    <g fill="none" fill-rule="evenodd">
        <path fill="url(#prefix__a)" d="M256 0c141.385 0 256 114.615 256 256S397.385 512 256 512 0 397.385 0 256 114.615 0 256 0z"/>
        <g>
            <path fill="#000" d="M245.592 107.568c6.367 0 12.982.62 20.225 1.897l15.642 2.716-22.57 15.317c-13.689 9.38-27.693 11.842-28.794 12.023-1.937.248-3.9.372-5.846.372-14.843 0-25.495-7.328-26.504-8.049l-4.332-3.547 5.077-4.334c12.912-11.032 28.32-16.395 47.102-16.395zm-117.602-1.685c17.733 0 33.283 5.858 47.523 18.023l4.858 4.092h.003l-4.335 3.849c-1.144.815-11.628 8.02-26.285 8.02-1.946 0-3.915-.114-5.857-.363-1.007-.164-15.448-2.642-29.361-12.432l-22.311-15.65 15.747-3.31c7.128-1.5 13.686-2.229 20.018-2.229zM190.604.448c-2.579-.597-5.258-.597-7.84-.003L3.714 41.689c-4.808 1.106-5.002 7.884-.267 9.266l42.672 12.457v44.12c0 1.507.968 2.843 2.4 3.307l13.892 4.53c2.247.733 4.557-.943 4.557-3.31V69.57l19.438 5.692v155.376c0 5.523 1.294 10.978 3.817 15.885 24.969 48.596 70.721 74.813 88.764 83.653 4.797 2.348 10.409 2.351 15.208.003 18.057-8.835 63.869-35.052 88.845-83.653 2.523-4.91 3.818-10.365 3.818-15.888V75.256l82.964-24.293c4.735-1.385 4.538-8.16-.267-9.266L190.605.447z" transform="translate(69 108)"/>
            <path fill="#E24301" d="M186.928 145.848s-14.897 11.742-37.173 11.742c-2.671 0-5.577-.17-8.444-.545 0 0-18.548-2.562-37.217-15.488v89.37c0 2.656.612 5.277 1.767 7.665 25.468 52.656 80.83 74.584 80.83 74.584s54.264-21.909 80.612-74.51c1.222-2.443 1.87-5.14 1.87-7.869v-88.701c-18.673 12.422-36.465 14.949-36.465 14.949-2.868.375-5.787.545-8.458.545-22.308 0-37.322-11.742-37.322-11.742zM182.772 18.603L55.72 47.833l48.373 14.156v28.806c7.861-1.573 15.56-2.607 23.778-2.607 18.888 0 39.324 5.452 59.067 22.317 19-16.233 40.5-20.633 58.764-20.633 8.636 0 16.592.983 23.469 2.165V61.989l48.32-14.157-126.9-29.23c-2.571-.59-5.245-.59-7.819 0" transform="translate(69 108)"/>
            <path fill="#FFF" fill-opacity=".5" d="M186.632 297.24V161.266s18.841 14.808 45.812 11.261c0 0 10.198-1.425 22.972-7.385v63.998c0 2.5-.774 4.929-2.172 7.002-26.201 38.873-66.612 61.098-66.612 61.098z" transform="translate(69 108)"/>
        </g>
    </g>
</svg>
