<svg xmlns="http://www.w3.org/2000/svg" width="512" height="512" viewBox="0 0 512 512">
    <g fill="none" fill-rule="evenodd">
        <path fill="#FFF" d="M256 0c141.385 0 256 114.615 256 256S397.385 512 256 512 0 397.385 0 256 114.615 0 256 0z"/>
        <path fill="#1193F5" fill-rule="nonzero" d="M217.616 183.047c-29.203-9.032-65.104 2.307-80.113 29.81-17.354 8.616-39.905 2.705-54.607 18.2-27.971 20.259-33.086 66.54-6.242 89.862 16.243 15.65 39.734 18.998 61.367 18.022 79.838.911 159.684-.654 239.524.502 15.278-.5 33.538 3.015 45.004-9.844 21.113-22.08 18.828-64.724-8.408-80.909-9.409-9.276-33.231 7.944-27.605-12.392.807-41.626-25.4-85.498-67.397-96.052-23.663-7.31-49.396-1.44-69.325 12.605-12.544 7.823-24.338 17.517-32.198 30.196zm96.481-14.335c14.417-1.298 10.607 21.853 7.231 29.18-18.135-.609-36.337-.095-54.498-.265-6.29-15.1 2.426-37.978 20.885-25.232 8.995 1.838 17.669-2.198 26.382-3.683zm-38.176 38.48c19.87 1.051 40.691-2.542 59.928 2.848 10.84 9.593-4.57 19.744-13.49 10.994-5.906 3.915-2.007 18.448-14.406 13.737-8.532 3.66-11.41-21.684-16.36-6.71-1.04 13.867-26.302 7.307-22.243-7.375-5.419-.866-29.868-1.86-13.537-7.55 6.09-3.52 12.877-6.657 20.108-5.944zm-13.119 47.294c3.08 14.406 4.814 39.923 21.611 42.602 10.925-2.248 4.935-20.656 7.593-29.828-11.315-11.524 20.526-10.538 8.277-1.38 3.589 9.83-5.307 31.073 8.821 31.058 15.573-7.042 13.32-27.958 19.282-41.258 11.871-.556 39.368-4.842 35.302 15.402-2.46 13.872-4.491 27.69-6.754 41.57-2.777 10.038-14.482 6.103-22.142 6.891h-96.818c-10.228-13.489-9.069-31.928-10.947-48.062-5.12-20.275 19.367-14.905 31.862-16.74l1.957-.128 1.956-.127z"/>
    </g>
</svg>
